# Blender v3.5.1 OBJ File: 'belka.blend'
# www.blender.org
mtllib belka.mtl
o Driving_bar_Cylinder.039
v -0.136917 -0.002667 -1.870526
v 0.089773 -0.002667 -1.870526
v -0.136917 -0.018927 -1.868925
v 0.089773 -0.018927 -1.868925
v -0.136917 -0.034562 -1.864182
v 0.089773 -0.034562 -1.864182
v -0.136917 -0.048971 -1.856480
v 0.089773 -0.048971 -1.856480
v -0.136917 -0.061601 -1.846115
v 0.089773 -0.061601 -1.846115
v -0.136917 -0.071966 -1.833485
v 0.089773 -0.071966 -1.833485
v -0.136917 -0.079668 -1.819076
v 0.089773 -0.079668 -1.819076
v -0.136917 -0.084411 -1.803441
v 0.089773 -0.084411 -1.803441
v -0.136917 -0.086012 -1.787181
v 0.089773 -0.086012 -1.787181
v -0.136917 -0.084411 -1.770921
v 0.089773 -0.084411 -1.770921
v -0.136917 -0.079668 -1.755286
v 0.089773 -0.079668 -1.755286
v -0.136917 -0.071966 -1.740877
v 0.089773 -0.071966 -1.740877
v -0.136917 -0.061601 -1.728247
v 0.089773 -0.061601 -1.728247
v -0.136917 -0.048971 -1.717882
v 0.089773 -0.048971 -1.717882
v -0.136917 -0.034562 -1.710180
v 0.089773 -0.034562 -1.710180
v -0.136917 -0.018927 -1.705437
v 0.089773 -0.018927 -1.705437
v -0.136917 -0.002667 -1.703836
v 0.089773 -0.002667 -1.703836
v -0.136917 0.013593 -1.705437
v 0.089773 0.013593 -1.705437
v -0.136917 0.029228 -1.710180
v 0.089773 0.029228 -1.710180
v -0.136917 0.043637 -1.717882
v 0.089773 0.043637 -1.717882
v -0.136917 0.056267 -1.728247
v 0.089773 0.056267 -1.728247
v -0.136917 0.066632 -1.740877
v 0.089773 0.066632 -1.740877
v -0.136917 0.074334 -1.755286
v 0.089773 0.074334 -1.755286
v -0.136917 0.079077 -1.770921
v 0.089773 0.079077 -1.770921
v -0.136917 0.080678 -1.787181
v 0.089773 0.080678 -1.787181
v -0.136917 0.079077 -1.803441
v 0.089773 0.079077 -1.803441
v -0.136917 0.074334 -1.819076
v 0.089773 0.074334 -1.819076
v -0.136917 0.066632 -1.833485
v 0.089773 0.066632 -1.833485
v -0.136917 0.056267 -1.846115
v 0.089773 0.056267 -1.846115
v -0.136917 0.043637 -1.856480
v 0.089773 0.043637 -1.856480
v -0.136917 0.029228 -1.864182
v 0.089773 0.029228 -1.864182
v -0.136917 0.013593 -1.868925
v 0.089773 0.013593 -1.868925
v -0.136917 -0.002667 1.816616
v 0.257516 -0.002667 1.816616
v -0.136917 -0.018927 1.818217
v 0.257516 -0.018927 1.818217
v -0.136917 -0.034562 1.822960
v 0.257516 -0.034562 1.822960
v -0.136917 -0.048971 1.830662
v 0.257516 -0.048971 1.830662
v -0.136917 -0.061601 1.841027
v 0.257516 -0.061601 1.841027
v -0.136917 -0.071966 1.853657
v 0.257516 -0.071966 1.853657
v -0.136917 -0.079668 1.868066
v 0.257516 -0.079668 1.868066
v -0.136917 -0.084411 1.883701
v 0.257516 -0.084411 1.883701
v -0.136917 -0.086012 1.899961
v 0.257516 -0.086012 1.899961
v -0.136917 -0.084411 1.916221
v 0.257516 -0.084411 1.916221
v -0.136917 -0.079668 1.931856
v 0.257516 -0.079668 1.931856
v -0.136917 -0.071966 1.946265
v 0.257516 -0.071966 1.946265
v -0.136917 -0.061601 1.958895
v 0.257516 -0.061601 1.958895
v -0.136917 -0.048971 1.969260
v 0.257516 -0.048971 1.969260
v -0.136917 -0.034562 1.976962
v 0.257516 -0.034562 1.976962
v -0.136917 -0.018927 1.981705
v 0.257516 -0.018927 1.981705
v -0.136917 -0.002667 1.983306
v 0.257516 -0.002667 1.983306
v -0.136917 0.013593 1.981705
v 0.257516 0.013593 1.981705
v -0.136917 0.029228 1.976962
v 0.257516 0.029228 1.976962
v -0.136917 0.043637 1.969260
v 0.257516 0.043637 1.969260
v -0.136917 0.056267 1.958895
v 0.257516 0.056267 1.958895
v -0.136917 0.066632 1.946265
v 0.257516 0.066632 1.946265
v -0.136917 0.074334 1.931856
v 0.257516 0.074334 1.931856
v -0.136917 0.079077 1.916221
v 0.257516 0.079077 1.916221
v -0.136917 0.080678 1.899961
v 0.257516 0.080678 1.899961
v -0.136917 0.079077 1.883701
v 0.257516 0.079077 1.883701
v -0.136917 0.074334 1.868066
v 0.257516 0.074334 1.868066
v -0.136917 0.066632 1.853657
v 0.257516 0.066632 1.853657
v -0.136917 0.056267 1.841027
v 0.257516 0.056267 1.841027
v -0.136917 0.043637 1.830662
v 0.257516 0.043637 1.830662
v -0.136917 0.029228 1.822960
v 0.257516 0.029228 1.822960
v -0.136917 0.013593 1.818217
v 0.257516 0.013593 1.818217
v 0.017622 -0.082672 1.616874
v 0.017622 0.077328 1.616874
v 0.017622 -0.082672 -1.473258
v 0.017622 0.077328 -1.473258
v 0.057622 -0.082672 1.616874
v 0.057622 0.077328 1.616874
v 0.057622 -0.082672 -1.473258
v 0.057622 0.077328 -1.473258
v 0.005666 -0.130497 1.676716
v 0.005666 0.125153 1.676716
v 0.069579 -0.130497 1.676716
v 0.069579 0.125153 1.676716
v 0.005666 -0.130497 2.114652
v 0.005666 0.125153 2.114652
v 0.069579 -0.130497 2.114652
v 0.069579 0.125153 2.114652
v 0.017620 -0.082680 2.179935
v 0.017620 0.077336 2.179935
v 0.057624 -0.082680 2.179935
v 0.057624 0.077336 2.179935
v 0.004477 -0.135253 -1.544395
v 0.004477 0.129910 -1.544395
v 0.070768 -0.135253 -1.544395
v 0.070768 0.129910 -1.544395
v 0.004477 -0.135253 -2.012244
v 0.004477 0.129910 -2.012244
v 0.070768 -0.135253 -2.012244
v 0.070768 0.129910 -2.012244
v 0.020020 -0.073082 -2.090627
v 0.020020 0.067738 -2.090627
v 0.055225 -0.073082 -2.090627
v 0.055225 0.067738 -2.090627
vn 0.0000 -0.0980 -0.9952
vn 0.0000 -0.2903 -0.9569
vn 0.0000 -0.4714 -0.8819
vn 0.0000 -0.6344 -0.7730
vn -0.0000 -0.7730 -0.6344
vn 0.0000 -0.8819 -0.4714
vn 0.0000 -0.9569 -0.2903
vn 0.0000 -0.9952 -0.0980
vn 0.0000 -0.9952 0.0980
vn 0.0000 -0.9569 0.2903
vn 0.0000 -0.8819 0.4714
vn -0.0000 -0.7730 0.6344
vn -0.0000 -0.6344 0.7730
vn -0.0000 -0.4714 0.8819
vn -0.0000 -0.2903 0.9569
vn 0.0000 -0.0980 0.9952
vn 0.0000 0.0980 0.9952
vn -0.0000 0.2903 0.9569
vn -0.0000 0.4714 0.8819
vn -0.0000 0.6344 0.7730
vn -0.0000 0.7730 0.6344
vn -0.0000 0.8819 0.4714
vn -0.0000 0.9569 0.2903
vn -0.0000 0.9952 0.0980
vn -0.0000 0.9952 -0.0980
vn 0.0000 0.9569 -0.2903
vn -0.0000 0.8819 -0.4714
vn 0.0000 0.7730 -0.6344
vn 0.0000 0.6344 -0.7730
vn -0.0000 0.4714 -0.8819
vn 1.0000 0.0000 -0.0000
vn 0.0000 0.2903 -0.9569
vn 0.0000 0.0980 -0.9952
vn -1.0000 -0.0000 0.0000
vn 0.0000 -0.8042 0.5944
vn -0.9806 -0.0000 -0.1959
vn 0.0000 -1.0000 -0.0000
vn -0.0000 1.0000 0.0000
vn -0.0000 -0.7812 -0.6243
vn -0.0000 0.7812 -0.6243
vn 0.9806 0.0000 -0.1959
vn -0.0000 0.8067 0.5909
vn 0.0000 0.0000 1.0000
vn -0.9836 -0.0000 0.1801
vn 0.0000 -0.8067 0.5909
vn 0.9836 0.0000 0.1801
vn -0.0000 0.8042 0.5944
vn -0.9834 -0.0000 0.1817
vn 0.9834 0.0000 0.1817
vn 0.9809 0.0000 -0.1945
vn 0.0000 0.0000 -1.0000
vn -0.9809 -0.0000 -0.1945
vn 0.0000 -0.7835 -0.6214
vn -0.0000 0.7835 -0.6214
usemtl Light_Metal
s off
f 1//1 2//1 4//1 3//1
f 3//2 4//2 6//2 5//2
f 5//3 6//3 8//3 7//3
f 7//4 8//4 10//4 9//4
f 9//5 10//5 12//5 11//5
f 11//6 12//6 14//6 13//6
f 13//7 14//7 16//7 15//7
f 15//8 16//8 18//8 17//8
f 17//9 18//9 20//9 19//9
f 19//10 20//10 22//10 21//10
f 21//11 22//11 24//11 23//11
f 23//12 24//12 26//12 25//12
f 25//13 26//13 28//13 27//13
f 27//14 28//14 30//14 29//14
f 29//15 30//15 32//15 31//15
f 31//16 32//16 34//16 33//16
f 33//17 34//17 36//17 35//17
f 35//18 36//18 38//18 37//18
f 37//19 38//19 40//19 39//19
f 39//20 40//20 42//20 41//20
f 41//21 42//21 44//21 43//21
f 43//22 44//22 46//22 45//22
f 45//23 46//23 48//23 47//23
f 47//24 48//24 50//24 49//24
f 49//25 50//25 52//25 51//25
f 51//26 52//26 54//26 53//26
f 53//27 54//27 56//27 55//27
f 55//28 56//28 58//28 57//28
f 57//29 58//29 60//29 59//29
f 59//30 60//30 62//30 61//30
f 4//31 2//31 64//31 62//31 60//31 58//31 56//31 54//31 52//31 50//31 48//31 46//31 44//31 42//31 40//31 38//31 36//31 34//31 32//31 30//31 28//31 26//31 24//31 22//31 20//31 18//31 16//31 14//31 12//31 10//31 8//31 6//31
f 61//32 62//32 64//32 63//32
f 63//33 64//33 2//33 1//33
f 1//34 3//34 5//34 7//34 9//34 11//34 13//34 15//34 17//34 19//34 21//34 23//34 25//34 27//34 29//34 31//34 33//34 35//34 37//34 39//34 41//34 43//34 45//34 47//34 49//34 51//34 53//34 55//34 57//34 59//34 61//34 63//34
f 65//1 66//1 68//1 67//1
f 67//2 68//2 70//2 69//2
f 69//3 70//3 72//3 71//3
f 71//4 72//4 74//4 73//4
f 73//5 74//5 76//5 75//5
f 75//6 76//6 78//6 77//6
f 77//7 78//7 80//7 79//7
f 79//8 80//8 82//8 81//8
f 81//9 82//9 84//9 83//9
f 83//10 84//10 86//10 85//10
f 85//11 86//11 88//11 87//11
f 87//12 88//12 90//12 89//12
f 89//13 90//13 92//13 91//13
f 91//14 92//14 94//14 93//14
f 93//15 94//15 96//15 95//15
f 95//16 96//16 98//16 97//16
f 97//17 98//17 100//17 99//17
f 99//18 100//18 102//18 101//18
f 101//19 102//19 104//19 103//19
f 103//20 104//20 106//20 105//20
f 105//21 106//21 108//21 107//21
f 107//22 108//22 110//22 109//22
f 109//23 110//23 112//23 111//23
f 111//24 112//24 114//24 113//24
f 113//25 114//25 116//25 115//25
f 115//26 116//26 118//26 117//26
f 117//27 118//27 120//27 119//27
f 119//28 120//28 122//28 121//28
f 121//29 122//29 124//29 123//29
f 123//30 124//30 126//30 125//30
f 68//31 66//31 128//31 126//31 124//31 122//31 120//31 118//31 116//31 114//31 112//31 110//31 108//31 106//31 104//31 102//31 100//31 98//31 96//31 94//31 92//31 90//31 88//31 86//31 84//31 82//31 80//31 78//31 76//31 74//31 72//31 70//31
f 125//32 126//32 128//32 127//32
f 127//33 128//33 66//33 65//33
f 65//34 67//34 69//34 71//34 73//34 75//34 77//34 79//34 81//34 83//34 85//34 87//34 89//34 91//34 93//34 95//34 97//34 99//34 101//34 103//34 105//34 107//34 109//34 111//34 113//34 115//34 117//34 119//34 121//34 123//34 125//34 127//34
f 130//34 132//34 131//34 129//34
f 135//35 131//35 149//35 151//35
f 136//31 134//31 133//31 135//31
f 130//36 129//36 137//36 138//36
f 129//37 131//37 135//37 133//37
f 134//38 136//38 132//38 130//38
f 137//37 139//37 143//37 141//37
f 129//39 133//39 139//39 137//39
f 134//40 130//40 138//40 140//40
f 133//41 134//41 140//41 139//41
f 144//42 142//42 146//42 148//42
f 139//31 140//31 144//31 143//31
f 140//38 138//38 142//38 144//38
f 138//34 137//34 141//34 142//34
f 148//43 146//43 145//43 147//43
f 142//44 141//44 145//44 146//44
f 141//45 143//45 147//45 145//45
f 143//46 144//46 148//46 147//46
f 151//37 149//37 153//37 155//37
f 132//47 136//47 152//47 150//47
f 131//48 132//48 150//48 149//48
f 136//49 135//49 151//49 152//49
f 156//50 155//50 159//50 160//50
f 150//38 152//38 156//38 154//38
f 152//31 151//31 155//31 156//31
f 149//34 150//34 154//34 153//34
f 158//51 160//51 159//51 157//51
f 153//52 154//52 158//52 157//52
f 155//53 153//53 157//53 159//53
f 154//54 156//54 160//54 158//54
