# Blender 3.5.1
# www.blender.org
mtllib walecTex.mtl
o Cylinder
v -0.005295 0.010569 -0.598848
v -0.005295 3.041157 -0.598848
v 0.102483 0.010569 -0.588502
v 0.102483 3.041157 -0.588502
v 0.206118 0.010569 -0.557862
v 0.206118 3.041157 -0.557862
v 0.301629 0.010569 -0.508104
v 0.301629 3.041157 -0.508104
v 0.385346 0.010569 -0.441142
v 0.385346 3.041157 -0.441142
v 0.454050 0.010569 -0.359549
v 0.454050 3.041157 -0.359549
v 0.505102 0.010569 -0.266459
v 0.505102 3.041157 -0.266459
v 0.536539 0.010569 -0.165451
v 0.536539 3.041157 -0.165451
v 0.547154 0.010569 -0.060406
v 0.547154 3.041157 -0.060406
v 0.536539 0.010569 0.044639
v 0.536539 3.041157 0.044639
v 0.505102 0.010569 0.145647
v 0.505102 3.041157 0.145647
v 0.454050 0.010569 0.238736
v 0.454050 3.041157 0.238736
v 0.385346 0.010569 0.320330
v 0.385346 3.041157 0.320330
v 0.301629 0.010569 0.387292
v 0.301629 3.041157 0.387292
v 0.206118 0.010569 0.437049
v 0.206118 3.041157 0.437049
v 0.102483 0.010569 0.467690
v 0.102483 3.041157 0.467690
v -0.005295 0.010569 0.478036
v -0.005295 3.041157 0.478036
v -0.113072 0.010569 0.467690
v -0.113072 3.041157 0.467690
v -0.216708 0.010569 0.437049
v -0.216708 3.041157 0.437049
v -0.312219 0.010569 0.387292
v -0.312219 3.041157 0.387292
v -0.395936 0.010569 0.320330
v -0.395936 3.041157 0.320330
v -0.464640 0.010569 0.238736
v -0.464640 3.041157 0.238736
v -0.515692 0.010569 0.145647
v -0.515692 3.041157 0.145647
v -0.547129 0.010569 0.044639
v -0.547129 3.041157 0.044639
v -0.557744 0.010569 -0.060406
v -0.557744 3.041157 -0.060406
v -0.547129 0.010569 -0.165451
v -0.547129 3.041157 -0.165451
v -0.515692 0.010569 -0.266459
v -0.515692 3.041157 -0.266459
v -0.464640 0.010569 -0.359549
v -0.464640 3.041157 -0.359549
v -0.395936 0.010569 -0.441142
v -0.395936 3.041157 -0.441142
v -0.312219 0.010569 -0.508104
v -0.312219 3.041157 -0.508104
v -0.216708 0.010569 -0.557862
v -0.216708 3.041157 -0.557862
v -0.113072 0.010569 -0.588502
v -0.113072 3.041157 -0.588502
vn 0.0956 -0.0000 -0.9954
vn 0.2835 -0.0000 -0.9590
vn 0.4620 -0.0000 -0.8869
vn 0.6246 -0.0000 -0.7809
vn 0.7649 -0.0000 -0.6441
vn 0.8768 -0.0000 -0.4809
vn 0.9548 -0.0000 -0.2972
vn 0.9949 -0.0000 -0.1005
vn 0.9949 -0.0000 0.1005
vn 0.9548 -0.0000 0.2972
vn 0.8768 -0.0000 0.4809
vn 0.7649 -0.0000 0.6441
vn 0.6246 -0.0000 0.7809
vn 0.4620 -0.0000 0.8869
vn 0.2835 -0.0000 0.9590
vn 0.0956 -0.0000 0.9954
vn -0.0956 -0.0000 0.9954
vn -0.2835 -0.0000 0.9590
vn -0.4620 -0.0000 0.8869
vn -0.6246 -0.0000 0.7809
vn -0.7649 -0.0000 0.6441
vn -0.8768 -0.0000 0.4809
vn -0.9548 -0.0000 0.2972
vn -0.9949 -0.0000 0.1005
vn -0.9949 -0.0000 -0.1005
vn -0.9548 -0.0000 -0.2972
vn -0.8768 -0.0000 -0.4809
vn -0.7649 -0.0000 -0.6441
vn -0.6246 -0.0000 -0.7809
vn -0.4620 -0.0000 -0.8869
vn -0.0000 1.0000 -0.0000
vn -0.2835 -0.0000 -0.9590
vn -0.0956 -0.0000 -0.9954
vn -0.0000 -1.0000 -0.0000
vt 0.393784 0.000000
vt 0.000000 0.822079
vt 0.321875 0.822079
vt 0.393784 0.675614
vt 0.361840 0.000000
vt 0.006185 0.790739
vt 0.361840 0.675614
vt 0.321875 0.854023
vt 0.330518 0.000000
vt 0.018317 0.761208
vt 0.330518 0.675614
vt 0.328060 0.885345
vt 0.301022 0.000000
vt 0.035929 0.734620
vt 0.301022 0.675614
vt 0.340191 0.914839
vt 0.274486 0.000000
vt 0.058346 0.711998
vt 0.274486 0.675614
vt 0.357804 0.941373
vt 0.914226 0.000000
vt 0.251930 0.000000
vt 0.084705 0.694211
vt 0.251929 0.675614
vt 0.914226 0.675614
vt 0.380221 0.963927
vt 0.887892 0.000000
vt 0.113994 0.681942
vt 0.887892 0.675614
vt 0.406580 0.981635
vt 0.858620 0.000000
vt 0.145086 0.675663
vt 0.858620 0.675614
vt 0.435868 0.993815
vt 0.827536 0.000000
vt 0.176788 0.675614
vt 0.827536 0.675614
vt 0.466961 1.000000
vt 0.795834 0.000000
vt 0.207881 0.681799
vt 0.795834 0.675614
vt 0.498663 0.999952
vt 0.764733 0.000000
vt 0.237170 0.693980
vt 0.764733 0.675614
vt 0.529756 0.993673
vt 0.735427 0.000000
vt 0.263529 0.711687
vt 0.735427 0.675614
vt 0.559045 0.981404
vt 0.251929 0.000000
vt 0.709042 0.000000
vt 0.285946 0.734241
vt 0.709042 0.675614
vt 0.251929 0.675614
vt 0.585404 0.963616
vt 0.229310 0.000000
vt 0.303558 0.760775
vt 0.229310 0.675614
vt 0.607820 0.940994
vt 0.202724 0.000000
vt 0.315690 0.790270
vt 0.202724 0.675614
vt 0.625433 0.914407
vt 0.173194 0.000000
vt 0.321875 0.821591
vt 0.173194 0.675614
vt 0.637565 0.884876
vt 0.141855 0.000000
vt 0.321875 0.853536
vt 0.141855 0.675614
vt 0.643750 0.853536
vt 0.109910 0.000000
vt 0.315690 0.884876
vt 0.109910 0.675614
vt 0.643750 0.821591
vt 0.078588 0.000000
vt 0.303558 0.914407
vt 0.078588 0.675614
vt 0.637565 0.790270
vt 0.049093 0.000000
vt 0.285946 0.940994
vt 0.049093 0.675614
vt 0.625433 0.760775
vt 0.022557 0.000000
vt 0.263529 0.963616
vt 0.022557 0.675614
vt 0.607820 0.734241
vt 0.709042 0.000000
vt 0.000000 0.000000
vt 0.237170 0.981404
vt 0.000000 0.675614
vt 0.709042 0.675614
vt 0.585404 0.711687
vt 0.682708 0.000000
vt 0.207881 0.993673
vt 0.682708 0.675614
vt 0.559045 0.693980
vt 0.653437 0.000000
vt 0.176788 0.999952
vt 0.653437 0.675614
vt 0.529756 0.681799
vt 0.622353 0.000000
vt 0.145086 1.000000
vt 0.622352 0.675614
vt 0.498663 0.675614
vt 0.590651 0.000000
vt 0.113994 0.993815
vt 0.590651 0.675614
vt 0.466961 0.675663
vt 0.559549 0.000000
vt 0.084705 0.981635
vt 0.559549 0.675614
vt 0.435868 0.681942
vt 0.530243 0.000000
vt 0.058346 0.963927
vt 0.530243 0.675614
vt 0.406580 0.694211
vt 0.503859 0.000000
vt 0.035929 0.941373
vt 0.503859 0.675614
vt 0.380221 0.711998
vt 0.481239 0.000000
vt 0.018317 0.914839
vt 0.481239 0.675614
vt 0.357804 0.734620
vt 0.454654 0.000000
vt 0.006185 0.885345
vt 0.340191 0.761208
vt 0.454653 0.675614
vt 0.425124 0.000000
vt 0.000000 0.854023
vt 0.328060 0.790739
vt 0.425124 0.675614
s 0
usemtl Material
f 2/4/1 3/5/1 1/1/1
f 4/7/2 5/9/2 3/5/2
f 6/11/3 7/13/3 5/9/3
f 8/15/4 9/17/4 7/13/4
f 10/19/5 11/22/5 9/17/5
f 12/25/6 13/27/6 11/21/6
f 14/29/7 15/31/7 13/27/7
f 16/33/8 17/35/8 15/31/8
f 18/37/9 19/39/9 17/35/9
f 20/41/10 21/43/10 19/39/10
f 22/45/11 23/47/11 21/43/11
f 24/49/12 25/52/12 23/47/12
f 26/55/13 27/57/13 25/51/13
f 28/59/14 29/61/14 27/57/14
f 30/63/15 31/65/15 29/61/15
f 32/67/16 33/69/16 31/65/16
f 34/71/17 35/73/17 33/69/17
f 36/75/18 37/77/18 35/73/18
f 38/79/19 39/81/19 37/77/19
f 40/83/20 41/85/20 39/81/20
f 42/87/21 43/90/21 41/85/21
f 44/93/22 45/95/22 43/89/22
f 46/97/23 47/99/23 45/95/23
f 48/101/24 49/103/24 47/99/24
f 50/105/25 51/107/25 49/103/25
f 52/109/26 53/111/26 51/107/26
f 54/113/27 55/115/27 53/111/27
f 56/117/28 57/119/28 55/115/28
f 58/121/29 59/123/29 57/119/29
f 60/125/30 61/127/30 59/123/30
f 10/20/31 8/16/31 26/56/31
f 62/130/32 63/131/32 61/127/32
f 64/134/33 1/1/33 63/131/33
f 59/124/34 61/128/34 39/82/34
f 2/4/1 4/7/1 3/5/1
f 4/7/2 6/11/2 5/9/2
f 6/11/3 8/15/3 7/13/3
f 8/15/4 10/19/4 9/17/4
f 10/19/5 12/24/5 11/22/5
f 12/25/6 14/29/6 13/27/6
f 14/29/7 16/33/7 15/31/7
f 16/33/8 18/37/8 17/35/8
f 18/37/9 20/41/9 19/39/9
f 20/41/10 22/45/10 21/43/10
f 22/45/11 24/49/11 23/47/11
f 24/49/12 26/54/12 25/52/12
f 26/55/13 28/59/13 27/57/13
f 28/59/14 30/63/14 29/61/14
f 30/63/15 32/67/15 31/65/15
f 32/67/16 34/71/16 33/69/16
f 34/71/17 36/75/17 35/73/17
f 36/75/18 38/79/18 37/77/18
f 38/79/19 40/83/19 39/81/19
f 40/83/20 42/87/20 41/85/20
f 42/87/21 44/92/21 43/90/21
f 44/93/22 46/97/22 45/95/22
f 46/97/23 48/101/23 47/99/23
f 48/101/24 50/105/24 49/103/24
f 50/105/25 52/109/25 51/107/25
f 52/109/26 54/113/26 53/111/26
f 54/113/27 56/117/27 55/115/27
f 56/117/28 58/121/28 57/119/28
f 58/121/29 60/125/29 59/123/29
f 60/125/30 62/130/30 61/127/30
f 6/12/31 4/8/31 32/68/31
f 4/8/31 2/3/31 34/72/31
f 2/3/31 64/133/31 36/76/31
f 64/133/31 62/129/31 38/80/31
f 62/129/31 60/126/31 38/80/31
f 60/126/31 58/122/31 40/84/31
f 38/80/31 60/126/31 40/84/31
f 58/122/31 56/118/31 42/88/31
f 56/118/31 54/114/31 44/94/31
f 42/88/31 56/118/31 44/94/31
f 54/114/31 52/110/31 48/102/31
f 52/110/31 50/106/31 48/102/31
f 48/102/31 46/98/31 54/114/31
f 46/98/31 44/94/31 54/114/31
f 42/88/31 40/84/31 58/122/31
f 38/80/31 36/76/31 64/133/31
f 36/76/31 34/72/31 2/3/31
f 34/72/31 32/68/31 4/8/31
f 32/68/31 30/64/31 6/12/31
f 30/64/31 28/60/31 6/12/31
f 28/60/31 26/56/31 8/16/31
f 6/12/31 28/60/31 8/16/31
f 26/56/31 24/50/31 10/20/31
f 24/50/31 22/46/31 12/26/31
f 10/20/31 24/50/31 12/26/31
f 22/46/31 20/42/31 16/34/31
f 20/42/31 18/38/31 16/34/31
f 16/34/31 14/30/31 22/46/31
f 14/30/31 12/26/31 22/46/31
f 62/130/32 64/134/32 63/131/32
f 64/134/33 2/4/33 1/1/33
f 63/132/34 1/2/34 33/70/34
f 1/2/34 3/6/34 31/66/34
f 3/6/34 5/10/34 31/66/34
f 5/10/34 7/14/34 29/62/34
f 31/66/34 5/10/34 29/62/34
f 7/14/34 9/18/34 25/53/34
f 9/18/34 11/23/34 23/48/34
f 11/23/34 13/28/34 23/48/34
f 13/28/34 15/32/34 21/44/34
f 23/48/34 13/28/34 21/44/34
f 15/32/34 17/36/34 19/40/34
f 19/40/34 21/44/34 15/32/34
f 23/48/34 25/53/34 9/18/34
f 25/53/34 27/58/34 7/14/34
f 27/58/34 29/62/34 7/14/34
f 31/66/34 33/70/34 1/2/34
f 33/70/34 35/74/34 63/132/34
f 35/74/34 37/78/34 63/132/34
f 37/78/34 39/82/34 61/128/34
f 63/132/34 37/78/34 61/128/34
f 39/82/34 41/86/34 57/120/34
f 41/86/34 43/91/34 55/116/34
f 43/91/34 45/96/34 55/116/34
f 45/96/34 47/100/34 53/112/34
f 55/116/34 45/96/34 53/112/34
f 47/100/34 49/104/34 51/108/34
f 51/108/34 53/112/34 47/100/34
f 55/116/34 57/120/34 41/86/34
f 57/120/34 59/124/34 39/82/34
